<svg version="1.1" id="Layer_1" xmlns="http://www.w3.org/2000/svg" xmlns:xlink="http://www.w3.org/1999/xlink" viewBox="0 0 511.988 511.988" xml:space="preserve" fill="#000000"><g id="SVGRepo_bgCarrier" stroke-width="0"></g><g id="SVGRepo_tracerCarrier" stroke-linecap="round" stroke-linejoin="round"></g><g id="SVGRepo_iconCarrier"> <g> <rect x="215.931" y="45.913" transform="matrix(-0.7071 -0.7071 0.7071 -0.7071 376.2205 327.8016)" style="fill:#E6E9ED;" width="80.139" height="80.139"></rect> <rect x="215.926" y="159.248" transform="matrix(-0.7071 -0.7071 0.7071 -0.7071 296.0724 521.2729)" style="fill:#E6E9ED;" width="80.139" height="80.139"></rect> </g> <g> <polygon style="fill:#ED5564;" points="199.324,312.65 142.661,255.994 199.324,199.324 255.994,255.994 "></polygon> <polygon style="fill:#ED5564;" points="85.99,312.65 29.328,255.994 85.99,199.324 142.661,255.994 "></polygon> <polygon style="fill:#ED5564;" points="199.324,199.324 142.661,142.654 199.324,85.983 255.994,142.654 "></polygon> <polygon style="fill:#ED5564;" points="199.324,425.99 142.661,369.32 199.324,312.65 255.994,369.32 "></polygon> </g> <g> <polygon style="fill:#E6E9ED;" points="255.994,369.32 199.324,312.65 255.994,255.994 312.664,312.65 "></polygon> <polygon style="fill:#E6E9ED;" points="142.661,255.994 85.99,199.324 142.661,142.654 199.324,199.324 "></polygon> <polygon style="fill:#E6E9ED;" points="142.661,369.32 85.99,312.65 142.661,255.994 199.324,312.65 "></polygon> <rect x="215.927" y="385.917" transform="matrix(-0.7071 -0.7071 0.7071 -0.7071 135.7965 908.2211)" style="fill:#E6E9ED;" width="80.139" height="80.139"></rect> </g> <g> <polygon style="fill:#ED5564;" points="312.664,199.324 369.335,255.994 312.664,312.65 255.994,255.994 "></polygon> <polygon style="fill:#ED5564;" points="425.99,199.324 482.66,255.994 425.99,312.65 369.335,255.994 "></polygon> <rect x="272.592" y="329.259" transform="matrix(0.7071 0.7071 -0.7071 0.7071 352.7313 -112.9109)" style="fill:#ED5564;" width="80.139" height="80.139"></rect> <rect x="272.6" y="102.591" transform="matrix(0.7071 0.7071 -0.7071 0.7071 192.4549 -179.3069)" style="fill:#ED5564;" width="80.139" height="80.139"></rect> </g> <g> <polygon style="fill:#E6E9ED;" points="369.335,255.994 425.99,312.65 369.335,369.32 312.664,312.65 "></polygon> <polygon style="fill:#E6E9ED;" points="369.335,142.654 425.99,199.324 369.335,255.994 312.664,199.324 "></polygon> </g> <path style="fill:#F4BE8E;" d="M170.66,458.646c-5.883,0-10.663-4.781-10.663-10.672V63.984c0-5.891,4.78-10.672,10.663-10.672 h170.676c5.875,0,10.656,4.781,10.656,10.672v383.99c0,5.891-4.781,10.672-10.656,10.672H170.66z"></path> <path style="fill:#EAAD7A;" d="M341.336,42.64H170.66c-11.78,0-21.335,9.562-21.335,21.344v383.99 c0,11.797,9.555,21.344,21.335,21.344h170.676c11.781,0,21.328-9.547,21.328-21.344V63.984 C362.664,52.202,353.117,42.64,341.336,42.64z M341.336,447.974H170.66V63.984h170.676L341.336,447.974L341.336,447.974z"></path> <path style="fill:#FC6E51;" d="M255.994,501.316c-23.522,0-42.663-19.139-42.663-42.67V53.327c0-23.531,19.141-42.671,42.663-42.671 c23.531,0,42.671,19.14,42.671,42.671v405.319C298.665,482.178,279.525,501.316,255.994,501.316z"></path> <path style="fill:#E9573F;" d="M255.994,0c-29.452,0-53.335,23.875-53.335,53.327v405.319c0,29.451,23.883,53.342,53.335,53.342 s53.342-23.891,53.342-53.342V53.327C309.336,23.875,285.446,0,255.994,0z M287.993,458.646c0,17.641-14.343,31.998-31.999,31.998 c-17.647,0-31.999-14.357-31.999-31.998V53.327c0-17.641,14.352-31.999,31.999-31.999c17.656,0,31.999,14.358,31.999,31.999V458.646 z"></path> <path style="fill:#FFCE54;" d="M276.213,432.553l-17.141-34.248c-3.742-7.5-3.742-21.141,0-28.625l12.914-25.844 c6.789-13.594,6.789-34.107,0-47.701l-12.922-25.844c-3.742-7.484-3.742-21.125,0-28.609l12.922-25.843 c6.789-13.594,6.789-34.108,0-47.702L259.08,142.31c-3.742-7.5-3.742-21.141,0-28.64l17.133-34.25h-0.016 c0.719-1.438,1.141-3.047,1.141-4.766c0-5.89-4.781-10.671-10.68-10.671c-4.172,0-7.781,2.406-9.531,5.906h-0.008l-17.116,34.25 c-6.797,13.593-6.797,34.093-0.008,47.702l12.913,25.828c3.742,7.5,3.742,21.14-0.008,28.624l-12.913,25.843 c-6.805,13.593-6.805,34.108,0,47.702l12.913,25.844c3.75,7.484,3.75,21.123,0,28.623l-12.913,25.828 c-6.797,13.609-6.797,34.109,0.008,47.701l17.124,34.266l0.008-0.016c1.75,3.5,5.359,5.906,9.531,5.906 c5.898,0,10.68-4.781,10.68-10.672c0-1.719-0.422-3.328-1.141-4.766L276.213,432.553L276.213,432.553z"></path> <polygon style="opacity:0.1;enable-background:new ;" points="362.664,375.992 369.335,369.32 383.99,354.648 383.99,157.325 369.335,142.654 362.664,135.982 "></polygon> <polygon style="opacity:0.1;enable-background:new ;" points="127.997,354.648 142.661,369.32 149.325,375.992 149.325,135.982 142.661,142.654 127.997,157.325 "></polygon> </g></svg>